# xmcd
#
# Track frame offsets:
#	150
#	22874
#	38963
#	59895
#	79999
#	94244
#	106348
#	124203
#	142323
#	154954
#	171034
#	184285
#
# Disc length: 2661 seconds
#
# Revision: 1
# Processed by: cddbd v1.5.2PL0 Copyright (c) Steve Scherf et al.
# Submitted via: audiograbber 1.83.01
#
DISCID=af0a630c
DTITLE=Various Artist - Capital Karaoke - Aussie Country Gals - Volume 2
DYEAR=1900
DGENRE=Karaoke
TTITLE0=Kasey Chambers - Million Tears
TTITLE1=Kasey Chambers - Not Pretty Enough
TTITLE2=Kasey Chambers - Pony
TTITLE3=Kasey Chambers - The Captain
TTITLE4=Melinda Schneider - Count to Three
TTITLE5=Melinda Schneider - I Wanna Be Married
TTITLE6=Sara Storer - Buffalo Bill
TTITLE7=Sara Storer - Mantrap
TTITLE8=Sara Storer and John Williamson - Raining on the Plains
TTITLE9=Shanley Dell - Your Own Sweet Time
TTITLE10=Tanya Kernaghan - Boys in Boots
TTITLE11=Tanya Kernaghan - Dunroamin Station
EXTD=
EXTT0=
EXTT1=
EXTT2=
EXTT3=
EXTT4=
EXTT5=
EXTT6=
EXTT7=
EXTT8=
EXTT9=
EXTT10=
EXTT11=
PLAYORDER=
